<?xml version="1.0" encoding="utf-8"?>
<!-- Generator: Adobe Illustrator 24.1.0, SVG Export Plug-In . SVG Version: 6.00 Build 0)  -->
<svg version="1.0" id="Ebene_1" xmlns="http://www.w3.org/2000/svg" xmlns:xlink="http://www.w3.org/1999/xlink" x="0px" y="0px"
	 viewBox="0 0 240 560" style="enable-background:new 0 0 240 560;" xml:space="preserve">
<style type="text/css">
	.st0{fill:#64378C;}
</style>
<g>
	<path class="st0" d="M211.24,334.92l-89.14-51.64l85.71-48.91c1.06-0.63,1.94-2.16,1.94-3.4v-25.91c0-1.49-1.23-1.87-2.3-1.25
		L99.13,267.23v-60.5c0-1.24-1.01-2.25-2.25-2.25H74.09c-1.24,0-2.25,1.01-2.25,2.25v155.84c0,1.24,1.01,2.25,2.25,2.25h22.78
		c1.24,0,2.25-1.01,2.25-2.25V299.2l111.42,66.13c1.07,0.63,2.58,0.24,2.58-1.28l0.05-25.74
		C213.18,336.75,212.31,335.55,211.24,334.92"/>
	<path class="st0" d="M114.68,484.21l27.84-55.98l27.65,55.98H114.68z M238.46,555.56l-78.85-155.93c-0.56-1.11-1.6-2.01-3.03-2.01
		H130.9c-1.49,0-2.73,0.98-3.3,2l-81.03,155.8c-0.57,1.1,0.04,2.54,1.65,2.54h27.23c1.24,0,2.71-0.91,3.26-2.02l23.65-46.71h79.67
		l23.41,46.7c0.55,1.11,2.01,2.02,3.25,2.02h28.17C238.35,557.95,239.02,556.67,238.46,555.56"/>
	<path class="st0" d="M182.5,4.3c0-1.24,1.01-2.25,2.25-2.25h22.78c1.24,0,2.25,1.01,2.25,2.25v155.84c0,1.24-1.01,2.26-2.25,2.26
		h-22.78c-1.24,0-2.25-1.02-2.25-2.26V4.3z"/>
	<path class="st0" d="M167.37,69.92H99.12V4.3c0-1.24-1.01-2.25-2.25-2.25H74.09c-1.23,0-2.25,1.01-2.25,2.25v65.62H3.6
		c-1.24,0-2.25,1.01-2.25,2.25v20.11c0,1.24,1.02,2.25,2.25,2.25h68.24v65.61c0,1.24,1.02,2.25,2.25,2.25h22.78
		c1.24,0,2.25-1.02,2.25-2.25V94.54h68.25c1.23,0,2.25-1.01,2.25-2.25V72.17C169.62,70.94,168.6,69.92,167.37,69.92"/>
</g>
</svg>
